<svg enable-background="new 0 0 512 512" viewBox="0 0 512 512" xmlns="http://www.w3.org/2000/svg"><path d="m116.141 461.94h279.72v40.06h-279.72z" fill="#fcb17e"/><path d="m383.44 158.137c24.037 0 43.522 19.475 43.522 43.498v207.346l-31.016-30.999-31.183 31.165v-137.748" fill="#ff5d5d"/><path d="m128.562 158.137c-24.037 0-43.522 19.475-43.522 43.498v207.346l31.016-30.999 31.183 31.165v-137.748" fill="#ff5d5d"/><path d="m426.962 236.159 64.897-36.769c6.268-3.55 10.142-10.196 10.142-17.397v-117.995c0-11.045-8.959-19.999-20.01-19.999h-98.551v39.998h78.541v86.344l-36.348 20.594z" fill="#feda9b"/><path d="m85.04 236.159-64.897-36.769c-6.268-3.55-10.142-10.196-10.142-17.397v-117.995c0-11.045 8.959-19.999 20.01-19.999h98.551v39.998h-78.54v86.344l36.348 20.594z" fill="#feda9b"/><path d="m128.559 10v185.434c0 33.477 10.794 66.063 30.782 92.927l72.65 76.632-.004 42.927-49.561 33.909c-7.425 7.421-2.166 20.109 8.334 20.109h130.396c10.5 0 15.759-12.688 8.334-20.109l-49.603-33.909v-42.934l72.898-76.677c19.908-26.832 30.656-59.352 30.656-92.756v-185.553z" fill="#ffb954"/><path d="m229.684 119.675 26.291-53.603 26.555 53.474 59.104 8.44-42.65 41.779 10.237 58.819-52.914-27.652-52.778 27.912 9.948-58.869-42.855-41.569z" fill="#feda9b"/><path d="m481.991 33.999h-88.552v-23.999c0-5.523-4.478-10-10-10h-254.88c-5.522 0-10 4.477-10 10v23.999h-88.547c-16.548 0-30.011 13.457-30.011 29.999v117.995c0 10.782 5.829 20.783 15.212 26.099l59.827 33.896v166.994c0 4.044 2.436 7.69 6.172 9.238 3.735 1.547 8.036.693 10.897-2.165l23.946-23.934 24.113 24.1c1.913 1.912 4.47 2.927 7.071 2.927 1.289 0 2.589-.25 3.826-.762 3.736-1.548 6.172-5.194 6.172-9.238v-49.648c0-5.523-4.478-10-10-10s-10 4.477-10 10v25.516l-14.113-14.106c-3.906-3.902-10.234-3.902-14.139 0l-13.946 13.939v-183.214c0-14.99 9.905-27.712 23.519-31.974v25.773c0 35.382 11.634 70.504 32.76 98.896.236.318.492.622.766.91l69.906 73.738-.003 33.666-45.208 30.931c-.51.349-.986.744-1.423 1.18-4.622 4.619-6.833 10.914-6.311 17.182h-52.906c-5.522 0-10 4.477-10 10v40.063c0 5.523 4.478 10 10 10h279.724c5.522 0 10-4.477 10-10v-40.063c0-5.523-4.478-10-10-10h-52.994c.522-6.268-1.688-12.562-6.311-17.182-.438-.438-.915-.833-1.426-1.183l-45.246-30.931v-33.661l64.877-68.241v108.409c0 4.044 2.436 7.69 6.172 9.238 1.237.513 2.537.762 3.826.762 2.602 0 5.158-1.016 7.071-2.927l24.113-24.1 23.946 23.934c2.861 2.859 7.163 3.712 10.897 2.165 3.736-1.548 6.172-5.194 6.172-9.238v-166.994l59.827-33.896c9.383-5.316 15.212-15.316 15.212-26.099v-117.995c.002-16.542-13.46-29.999-30.008-29.999zm-88.552 115.089v-55.091h58.541v70.516l-21.276 12.055c-7.501-14.074-21.107-24.414-37.265-27.48zm-368.367 41.602c-3.128-1.772-5.071-5.104-5.071-8.697v-117.995c0-5.514 4.491-9.999 10.011-9.999h88.547v19.999h-68.537c-5.522 0-10 4.477-10 10v86.344c0 3.602 1.937 6.925 5.07 8.701l30.226 17.125c-.184 1.798-.278 3.623-.278 5.469v17.363zm56.226-14.123-21.277-12.054v-70.516h58.537v55.091c-16.155 3.067-29.759 13.407-37.26 27.479zm188.589 198.418v22.935h-27.899l.002-22.935zm115.976 117.015h-259.723v-20.063h259.724v20.063zm-63.083-42.645c.186.331.302.817.026 1.482-.443 1.069-1.271 1.099-1.618 1.1h-130.461c-.347-.001-1.175-.031-1.618-1.1-.275-.666-.158-1.152.027-1.483l45.943-31.435h41.716zm-47.184-94.37h-39.314l-69.267-73.064c-18.354-24.881-28.456-55.571-28.456-86.486v-37.22c0-.026.004-.051.004-.077s-.004-.051-.004-.077v-73.987c0-.026.004-.051.004-.077s-.004-.051-.004-.077v-39.844c0-.026.004-.051.004-.077s-.004-.051-.004-.077v-23.922h234.881v175.552c0 30.841-10.057 61.468-28.33 86.316zm141.366 29.864-13.946-13.939c-3.906-3.901-10.234-3.902-14.139 0l-14.113 14.106v-113.125c12.149-23.489 18.676-49.845 18.676-76.339v-25.892c13.615 4.261 23.522 16.983 23.522 31.975zm75.039-202.856c0 3.593-1.943 6.925-5.071 8.697l-49.968 28.31v-17.365c0-1.846-.094-3.67-.278-5.468l30.226-17.125c3.134-1.775 5.07-5.099 5.07-8.701v-86.344c0-5.523-4.478-10-10-10h-68.541v-19.998h88.552c5.52 0 10.01 4.485 10.01 9.999z"/><path d="m343.048 118.086-53.9-7.697-24.216-48.765c-1.692-3.409-5.189-5.534-8.98-5.552-3.807.009-7.277 2.179-8.954 5.596l-23.976 48.883-53.861 7.961c-3.766.557-6.889 3.203-8.057 6.826-1.167 3.623-.176 7.595 2.556 10.245l39.082 37.908-9.072 53.686c-.634 3.753.917 7.541 4.002 9.771 1.739 1.257 3.794 1.896 5.859 1.896 1.6 0 3.206-.383 4.674-1.16l48.13-25.455 48.255 25.218c3.375 1.763 7.456 1.458 10.529-.787 3.074-2.245 4.607-6.041 3.954-9.791l-9.336-53.64 38.896-38.1c2.719-2.664 3.69-6.64 2.505-10.257-1.187-3.617-4.323-6.247-8.09-6.786zm-51.063 44.535c-2.351 2.303-3.418 5.616-2.854 8.858l6.763 38.857-34.956-18.268c-2.917-1.524-6.397-1.516-9.307.023l-34.866 18.439 6.572-38.89c.548-3.246-.535-6.553-2.897-8.845l-28.312-27.461 39.018-5.768c3.256-.481 6.067-2.534 7.517-5.489l17.368-35.411 17.542 35.325c1.464 2.948 4.284 4.986 7.542 5.452l39.046 5.576z"/><path d="m140.171 315.26c-1.86 1.86-2.93 4.44-2.93 7.07 0 2.64 1.069 5.21 2.93 7.08 1.859 1.86 4.439 2.92 7.07 2.92 2.63 0 5.199-1.06 7.069-2.92 1.86-1.87 2.931-4.44 2.931-7.08 0-2.63-1.07-5.21-2.931-7.07-1.859-1.86-4.439-2.93-7.069-2.93-2.64 0-5.211 1.07-7.07 2.93z"/></svg>